<svg viewBox="0 0 86 71" fill="none" xmlns="http://www.w3.org/2000/svg">
<path d="M37.8154 70.468L29.7488 68.0478C28.9025 67.8017 28.4264 66.8857 28.6645 66.0106L46.7151 1.72059C46.9531 0.845527 47.8391 0.353302 48.6854 0.599415L56.752 3.01952C57.5983 3.26563 58.0744 4.18172 57.8364 5.05678L39.7857 69.3468C39.5345 70.2218 38.6617 70.7277 37.8154 70.468ZM22.7402 55.127L28.4926 48.7827C29.1009 48.1128 29.0612 47.0463 28.3868 46.431L16.4059 35.5337L28.3868 24.6364C29.0612 24.0211 29.1141 22.9546 28.4926 22.2846L22.7402 15.9404C22.1451 15.2841 21.1401 15.2431 20.4921 15.872L1.43648 34.3305C0.762059 34.9731 0.762059 36.0806 1.43648 36.7232L20.4921 55.1953C21.1401 55.8243 22.1451 55.7969 22.7402 55.127ZM66.0087 55.209L85.0643 36.7369C85.7388 36.0943 85.7388 34.9868 85.0643 34.3441L66.0087 15.8584C65.374 15.2431 64.369 15.2704 63.7607 15.9267L58.0083 22.271C57.4 22.9409 57.4396 24.0074 58.1141 24.6227L70.0949 35.5337L58.1141 46.431C57.4396 47.0463 57.3867 48.1128 58.0083 48.7827L63.7607 55.127C64.3557 55.7969 65.3607 55.8243 66.0087 55.209Z" fill="black"/>
</svg>
